<?xml version="1.0" encoding="UTF-8" standalone="no"?><!DOCTYPE svg PUBLIC "-//W3C//DTD SVG 1.1//EN" "http://www.w3.org/Graphics/SVG/1.1/DTD/svg11.dtd"><svg width="100%" height="100%" viewBox="0 0 128 128" version="1.1" xmlns="http://www.w3.org/2000/svg" xmlns:xlink="http://www.w3.org/1999/xlink" xml:space="preserve" style="fill-rule:evenodd;clip-rule:evenodd;stroke-linejoin:round;stroke-miterlimit:1.41421;"><g><path d="M100.239,80.72c0.009,0.047 0.018,0.093 0.026,0.141c-0.008,-0.048 -0.017,-0.094 -0.026,-0.141" style="fill:#414142;fill-rule:nonzero;"/><path d="M58.557,86.894l-8.931,8.182c-8.1,7.431 -8.641,20.021 -1.21,28.122c1.922,2.096 4.191,3.684 6.637,4.761l0.137,-0.126l42.031,-38.562l0.312,-0.285c2.313,-2.122 3.244,-5.189 2.743,-8.067c-0.003,-0.02 -0.007,-0.038 -0.011,-0.059c-0.008,-0.047 -0.016,-0.094 -0.026,-0.14c-0.305,-1.538 -1.022,-3.015 -2.158,-4.252c-0.775,-0.845 -1.688,-1.52 -2.697,-2.004c-0.015,-0.006 -0.028,-0.014 -0.041,-0.02c-0.062,-0.029 -0.124,-0.057 -0.186,-0.083c-0.046,-0.021 -0.09,-0.041 -0.136,-0.061c-0.028,-0.012 -0.057,-0.022 -0.086,-0.034c-2.154,-0.886 -4.595,-0.894 -6.765,0.002l-0.219,0.083l-29.302,12.504l-0.092,0.039Z" style="fill:#eee;fill-opacity:0.8;fill-rule:nonzero;"/><path d="M87.463,72.534c2.008,-0.826 4.198,-1.022 6.332,-0.566c2.186,0.466 4.143,1.586 5.66,3.239c1.916,2.089 2.846,4.739 2.816,7.372c3.238,-7.061 2.155,-15.676 -3.426,-21.759c-6.122,-6.674 -15.747,-8.217 -23.476,-4.398c2.063,-0.568 4.363,0.013 5.909,1.698c2.201,2.398 2.04,6.128 -0.358,8.328l-2.507,2.298l-15.605,14.298l24.407,-10.415l0.248,-0.095Z" style="fill:#fff;fill-rule:nonzero;"/><path d="M95.383,74.464c-0.014,-0.006 -0.028,-0.013 -0.041,-0.019c0.013,0.005 0.027,0.013 0.041,0.019" style="fill:#414142;fill-rule:nonzero;"/><path d="M95.158,74.361c-0.047,-0.02 -0.091,-0.042 -0.137,-0.06c0.045,0.018 0.09,0.04 0.137,0.06" style="fill:#414142;fill-rule:nonzero;"/><path d="M95.342,74.444c-0.061,-0.029 -0.123,-0.055 -0.184,-0.082c0.061,0.027 0.123,0.053 0.184,0.082" style="fill:#414142;fill-rule:nonzero;"/><path d="M100.276,80.918c-0.003,-0.018 -0.007,-0.038 -0.011,-0.057c0.004,0.019 0.008,0.039 0.011,0.057" style="fill:#414142;fill-rule:nonzero;"/><path d="M95.021,74.301c-0.028,-0.013 -0.057,-0.023 -0.086,-0.035c0.029,0.012 0.058,0.022 0.086,0.035" style="fill:#414142;fill-rule:nonzero;"/><path d="M27.634,65.08c-0.01,-0.047 -0.019,-0.093 -0.027,-0.14c0.009,0.047 0.017,0.093 0.027,0.14" style="fill:#414142;fill-rule:nonzero;"/><path d="M69.316,58.906l28.443,-26.063c8.101,-7.43 8.644,-20.021 1.213,-28.121c-1.923,-2.096 -4.191,-3.686 -6.637,-4.763l-19.652,18.008l-42.032,38.562l-0.311,0.285c-2.314,2.123 -3.245,5.189 -2.743,8.068c0.003,0.019 0.007,0.038 0.01,0.058c0.009,0.047 0.017,0.094 0.026,0.141c0.306,1.538 1.023,3.015 2.159,4.252c0.775,0.844 1.688,1.519 2.697,2.003c0.014,0.006 0.028,0.014 0.041,0.021c0.062,0.028 0.124,0.055 0.186,0.083c0.045,0.019 0.09,0.041 0.136,0.06c0.028,0.013 0.057,0.023 0.085,0.034c2.154,0.887 4.596,0.894 6.766,-0.001l0.219,-0.083l29.302,-12.505l0.092,-0.039Z" style="fill:#fff;fill-rule:nonzero;"/><path d="M40.41,73.266c-2.009,0.826 -4.198,1.023 -6.332,0.567c-2.186,-0.467 -4.143,-1.587 -5.66,-3.24c-1.916,-2.089 -2.846,-4.738 -2.816,-7.372c-3.238,7.061 -2.155,15.677 3.426,21.76c6.122,6.674 15.746,8.217 23.476,4.397c-2.064,0.568 -4.363,-0.013 -5.91,-1.698c-2.2,-2.398 -2.039,-6.127 0.359,-8.327l2.507,-2.298l15.605,-14.298l-24.407,10.415l-0.248,0.094Z" style="fill:#eee;fill-opacity:0.8;fill-rule:nonzero;"/><path d="M32.49,71.336c0.013,0.007 0.026,0.014 0.041,0.02c-0.015,-0.006 -0.028,-0.013 -0.041,-0.02" style="fill:#414142;fill-rule:nonzero;"/><path d="M32.715,71.439c0.046,0.021 0.09,0.042 0.136,0.061c-0.046,-0.019 -0.09,-0.041 -0.136,-0.061" style="fill:#414142;fill-rule:nonzero;"/><path d="M32.53,71.356c0.062,0.029 0.123,0.056 0.185,0.082c-0.062,-0.026 -0.123,-0.053 -0.185,-0.082" style="fill:#414142;fill-rule:nonzero;"/><path d="M27.596,64.882c0.004,0.019 0.008,0.039 0.012,0.058c-0.004,-0.019 -0.008,-0.039 -0.012,-0.058" style="fill:#414142;fill-rule:nonzero;"/><path d="M32.851,71.5c0.029,0.012 0.058,0.022 0.086,0.035c-0.028,-0.013 -0.057,-0.023 -0.086,-0.035" style="fill:#414142;fill-rule:nonzero;"/></g></svg>